<svg xmlns="http://www.w3.org/2000/svg" viewBox="0 0 426.71 77.73"><defs><style>.a{fill:red;}</style></defs><title>Artboard 4</title><path d="M292.22,22C271.73,22,260,28.74,260,50.45c0,24.26,14.11,27.91,36,27.91a143.67,143.67,0,0,0,16.28-1.14l3.87-.42a1.8,1.8,0,0,0,1.57-1.75v-3a1.4,1.4,0,0,0-1.57-1.42l-2.74.28h-.1l-2.64.26h0c-4.14.4-9.37.76-14.84.76-10.55,0-26.38-.1-26.28-18.36h53.42A1.58,1.58,0,0,0,324.49,52V49.74C324.39,27.92,313,22,292.22,22ZM269.49,47.41c0-16.34,9.33-19.59,22.73-19.59,14.41,0,22.53,2.75,22.53,19.59Z"/><rect x="401.51" y="0.63" width="9.03" height="9.44" rx="0.43"/><rect class="a" x="417.68" y="0.63" width="9.03" height="9.44" rx="0.43"/><path d="M408.76,23.46h-5.47A1.58,1.58,0,0,0,401.71,25V75.16a1.57,1.57,0,0,0,1.58,1.57h5.47a1.58,1.58,0,0,0,1.58-1.57V25A1.59,1.59,0,0,0,408.76,23.46Z"/><path d="M182.62,22.3c-11.73,0-29,2.33-31,2.61l-.38.05a1.82,1.82,0,0,0-1.56,1.77V75.16a1.57,1.57,0,0,0,1.58,1.57h5.37a1.57,1.57,0,0,0,1.57-1.57V30.86c6.36-.68,15.84-1.56,22.43-1.56,10.65,0,20.6.2,20.6,9.74V75.16a1.57,1.57,0,0,0,1.57,1.57h5.48a1.57,1.57,0,0,0,1.57-1.57V43.51C209.81,28.79,208.59,22.3,182.62,22.3Z"/><path d="M109.7,22.65a221.25,221.25,0,0,0-26.94,2.1h0L80,25.09a1.84,1.84,0,0,0-1.56,1.77v3.55A1.38,1.38,0,0,0,80,31.81l5.5-.62a.29.29,0,0,1,.1,0,214.14,214.14,0,0,1,22.06-1.51c10.66,0,20.6.2,20.6,9.74v6S116.5,45,106.66,45c-10.46,0-32-1.73-32,15.93S95.3,78.16,107.78,78.16h1.92c25.93,0,27.19-8.11,27.2-22.78h0V43.86C136.9,29.15,135.68,22.65,109.7,22.65Zm18.57,32.72v5c0,10.15-9.94,11.5-20.59,11.5h-2.83c-10.45,0-21.12-1.19-21.12-10.11,0-10.56,10.35-10.56,21-10.45l23.54.3v3.8Z"/><path d="M62.55.63H57.08A1.58,1.58,0,0,0,55.5,2.2V24.47s-14.3-1.21-23.74-1.21C11.56,23.26,0,30.66,0,50.55,0,72.78,14.41,78.16,33.18,78.16h3.75c26,0,27.2-8.14,27.2-22.86V2.2A1.58,1.58,0,0,0,62.55.63Zm-7,53.59h0v6.12c0,10.15-9.94,11.5-20.6,11.5H33.07c-14.61,0-24-2.91-24-22C9,31.27,20.6,29.35,32.77,29.35c7.1,0,22.73,1,22.73,1Z"/><path d="M392.92,23.46h-6.18a2.71,2.71,0,0,0-2.24,1.43L382.6,29h0l-19,41h-4.47L340.51,29h0l-1.87-4.09a2.67,2.67,0,0,0-2.23-1.44H329a.91.91,0,0,0-.88,1.42l4.06,8.22v0l18.86,38.22h0l.28.57,1.39,2.82.29.58a2.76,2.76,0,0,0,2.27,1.41h11.15a2.77,2.77,0,0,0,2.28-1.41l.29-.58c.38-.78,1-2,1.4-2.82l.29-.57h0l19-38.24h0l4.09-8.24A.9.9,0,0,0,392.92,23.46Z"/><path d="M257.73,22.55l-.63,0h0c-2.42-.13-4.79-.21-7-.21-26,0-27.19,6.49-27.19,21.21V75.16a1.57,1.57,0,0,0,1.57,1.57H230a1.57,1.57,0,0,0,1.57-1.57V39c0-9.54,9.94-9.74,20.59-9.74,1.31,0,2.73,0,4.21.09v0l.09,0,.79,0A1.66,1.66,0,0,0,259,27.9l.24-3.7A1.55,1.55,0,0,0,257.73,22.55Z"/></svg>